<svg width="37" height="36" viewBox="0 0 37 36" fill="none" xmlns="http://www.w3.org/2000/svg">
<path fill-rule="evenodd" clip-rule="evenodd" d="M13.5 12H23.5C24.0523 12 24.5 12.4477 24.5 13V20C24.5 20.5523 24.0523 21 23.5 21H20.5H16.5H13.5C12.9477 21 12.5 20.5523 12.5 20V13C12.5 12.4477 12.9477 12 13.5 12ZM16.25 22H13.5C12.3954 22 11.5 21.1046 11.5 20V13C11.5 11.8954 12.3954 11 13.5 11H23.5C24.6046 11 25.5 11.8954 25.5 13V20C25.5 21.1046 24.6046 22 23.5 22H20.75L21.5 25H15.5L16.25 22ZM17.2808 22L16.7808 24H20.2192L19.7192 22H17.2808Z" fill="white"/>
</svg>
