<svg width="204" height="24" viewBox="0 0 204 24" fill="none" xmlns="http://www.w3.org/2000/svg">
<g clip-path="url(#clip0_1843_7133)">
<path d="M29.6537 13.98H31.3762C31.3975 14.83 32.1425 15.5325 33.355 15.5325C34.605 15.5325 35.355 14.9588 35.355 14.1501C35.355 13.4001 34.7812 13.025 33.9937 12.8525L32.6325 12.5338C30.9737 12.0863 30.0162 11.2838 30.0162 9.68253C30.0162 8.04503 31.42 6.79004 33.42 6.79004C35.1 6.79004 36.8438 7.68378 36.8438 9.68253H35.0562C35.035 8.91753 34.2475 8.40628 33.4613 8.40628C32.5038 8.40628 31.865 8.98128 31.865 9.74628C31.865 10.4275 32.5037 10.7888 33.1412 10.9375L34.61 11.3C36.6725 11.81 37.205 13.0438 37.205 14.175C37.205 16.025 35.4175 17.1525 33.355 17.1525C31.565 17.1488 29.7387 16.0213 29.6537 13.98Z" fill="white"/>
<path d="M47.6825 7.00256V16.9363H45.8325V15.3838C45.2362 16.6176 43.6412 17.1488 42.535 17.1488C40.0462 17.1488 38.515 15.5326 38.535 12.7463V7.00256H40.3862V12.6401C40.3862 14.2988 41.3862 15.3201 42.7687 15.3201C44.1512 15.3201 45.81 14.5326 45.8312 12.3851V7.00256H47.6825Z" fill="white"/>
<path d="M70.4662 12.7675H62.3837C62.66 14.5325 63.9362 15.405 65.6337 15.405C66.8462 15.405 67.9737 14.8938 68.5262 13.8951L70.1437 14.5325C69.2687 16.2563 67.485 17.1488 65.57 17.1488C62.7412 17.1488 60.465 15.0863 60.465 11.9375C60.465 8.78878 62.7412 6.79004 65.57 6.79004C68.3987 6.79004 70.505 8.79003 70.505 11.9375C70.5087 12.2138 70.4875 12.49 70.4662 12.7675ZM68.6587 11.1725C68.4237 9.47005 67.2112 8.53503 65.5737 8.53503C63.8937 8.53503 62.6987 9.38505 62.405 11.1725H68.6587Z" fill="white"/>
<path d="M77.9462 8.91754C77.4947 8.70022 77.0011 8.58418 76.5 8.57755C74.5212 8.57755 73.735 10.6825 73.735 13.2988V16.9363H71.86V7.00253H73.735V9.25253C74.245 7.50878 75.2025 6.78503 76.5212 6.78503C77.0065 6.78564 77.4881 6.8676 77.9462 7.02753V8.91754Z" fill="white"/>
<path d="M88.2988 11.1976V16.9401H86.4488V11.3039C86.4488 9.64386 85.4276 8.62384 84.045 8.62384C82.6625 8.62384 81.0038 9.41009 81.0038 11.5588V16.9338H79.1525V7.00009H81.0038V8.5101C81.5988 7.2976 83.215 6.7876 84.3 6.7876C86.7676 6.7901 88.3151 8.40635 88.2988 11.1976Z" fill="white"/>
<path d="M89.385 11.9375C89.385 8.79003 91.7463 6.79004 94.575 6.79004C97.4037 6.79004 99.7862 8.79003 99.7862 11.9375C99.7862 15.085 97.4037 17.1488 94.575 17.1488C91.7463 17.1488 89.385 15.0863 89.385 11.9375ZM97.9362 11.9375C97.9362 9.89628 96.4037 8.53503 94.575 8.53503C92.7662 8.53503 91.2563 9.89628 91.2563 11.9375C91.2563 14.0013 92.7662 15.405 94.575 15.405C96.4037 15.405 97.94 14.0013 97.94 11.9375H97.9362Z" fill="white"/>
<path d="M109.597 7.00256L105.45 16.9363H103.641L99.5162 7.00256H101.495L104.557 14.5751L107.599 7.00256H109.597Z" fill="white"/>
<path d="M119.741 7.00253V16.9363H117.891V15.3625C117.233 16.5113 115.785 17.1488 114.36 17.1488C111.638 17.1488 109.383 15.0863 109.383 11.9588C109.383 8.8113 111.616 6.79004 114.339 6.79004C115.829 6.79004 117.233 7.38505 117.891 8.55505V7.00253H119.741ZM117.891 11.9375C117.891 9.78878 116.148 8.53503 114.509 8.53503C112.701 8.53503 111.259 9.93878 111.259 11.9375C111.259 13.9163 112.705 15.405 114.509 15.405C116.296 15.405 117.891 14.065 117.891 11.9375Z" fill="white"/>
<path d="M59.44 11.98C59.44 15.1288 57.2075 17.1488 54.485 17.1488C52.995 17.1488 51.5912 16.5538 50.9325 15.3838V22.1338H49.0825V7.00879H50.94V8.57254C51.5987 7.42379 53.045 6.78503 54.4712 6.78503C57.19 6.79003 59.44 8.85379 59.44 11.98ZM57.565 12.0013C57.565 10.0238 56.1187 8.53503 54.2887 8.53503C52.5237 8.53503 50.9287 9.87378 50.9287 12.0013C50.9226 12.4463 51.005 12.8881 51.1711 13.3009C51.3373 13.7138 51.5838 14.0895 51.8965 14.4062C52.2091 14.723 52.5816 14.9744 52.9923 15.1458C53.403 15.3173 53.8437 15.4054 54.2887 15.405C56.1237 15.405 57.565 14.0013 57.565 12.0013Z" fill="white"/>
<path d="M6.57125 16.8674C6.8525 20.6174 8.90125 23.4386 11.4687 23.4386C14.0362 23.4386 16.0862 20.6161 16.3675 16.8674C20.1175 16.5861 22.9387 14.5361 22.9387 11.9699C22.9387 9.40363 20.1162 7.35239 16.3675 7.07114C16.0862 3.32114 14.0362 0.499878 11.4687 0.499878C8.90125 0.499878 6.8525 3.32239 6.57125 7.07239C2.82125 7.35364 0 9.40363 0 11.9711C0 14.5386 2.8225 16.5861 6.57125 16.8674ZM13.5262 20.1261C13.1875 20.6786 12.4687 21.6036 11.4687 21.6036C10.4687 21.6036 9.75125 20.6786 9.4125 20.1261C8.8675 19.2399 8.5225 18.1024 8.4125 16.8611C11.1225 16.6411 13.3387 15.4949 14.3387 13.8999C14.4921 14.5838 14.5689 15.2827 14.5675 15.9836C14.565 17.5624 14.1962 19.0336 13.5262 20.1261ZM9.86375 11.9699C9.86301 11.652 9.95661 11.341 10.1327 11.0764C10.3088 10.8117 10.5595 10.6052 10.853 10.4831C11.1465 10.361 11.4697 10.3287 11.7815 10.3904C12.0934 10.452 12.3799 10.6049 12.6049 10.8295C12.8299 11.0541 12.9831 11.3404 13.0453 11.6522C13.1074 11.9639 13.0756 12.2871 12.954 12.5808C12.8323 12.8745 12.6263 13.1255 12.3619 13.302C12.0975 13.4785 11.7866 13.5726 11.4687 13.5724C11.0435 13.5724 10.6356 13.4036 10.3347 13.1032C10.0338 12.8027 9.86441 12.3951 9.86375 11.9699ZM19.6262 9.91238C20.1775 10.2511 21.1037 10.9699 21.1037 11.9699C21.1037 12.9699 20.1775 13.6874 19.6262 14.0261C18.7387 14.5711 17.6025 14.9161 16.3612 15.0261C16.1412 12.3161 14.995 10.0999 13.4 9.09988C14.0839 8.94642 14.7828 8.86968 15.4837 8.87112C17.065 8.87237 18.5337 9.24238 19.6262 9.91238ZM9.4125 3.81238C9.75125 3.26113 10.4687 2.3349 11.4687 2.3349C12.4687 2.3349 13.1875 3.26113 13.5262 3.81238C14.07 4.69988 14.4162 5.83614 14.5262 7.07739C11.8162 7.29739 9.59875 8.44363 8.6 10.0386C8.44592 9.35481 8.36919 8.65585 8.37125 7.95489C8.3725 6.37614 8.74125 4.90488 9.4125 3.81238ZM3.3125 9.91238C4.19875 9.36863 5.33625 9.02238 6.5775 8.91238C6.7975 11.6224 7.94375 13.8399 9.53875 14.8386C8.85492 14.9926 8.15596 15.0694 7.455 15.0674C5.87625 15.0674 4.405 14.6986 3.3125 14.0274C2.76 13.6886 1.835 12.9711 1.835 11.9711C1.835 10.9711 2.76 10.2511 3.315 9.91238H3.3125Z" fill="white"/>
<path d="M203.625 2H127.25V21.875H203.625V2Z" fill="#00BBBB"/>
<path d="M134.484 12.8585H138.21V11.046H134.484V8.66795H138.732V6.88445H132.468V16.875H138.863V15.0915H134.484V12.8585Z" fill="white"/>
<path d="M151.089 6.88445H149.349L146.29 13.4385L143.201 6.88445H141.49L140.258 16.875H142.317L143.042 10.6835L145.507 15.744H147.087L149.523 10.6835L150.248 16.875H152.307L151.089 6.88445Z" fill="white"/>
<path d="M162.527 16.875L158.815 6.88445H156.64L152.913 16.875H155.059L155.857 14.4825H159.598L160.41 16.875H162.527ZM157.727 8.94345L159.003 12.728H156.451L157.727 8.94345Z" fill="white"/>
<path d="M165.692 16.875V6.88445H163.677V16.875H165.692Z" fill="white"/>
<path d="M170.139 6.88445H168.123V16.875H173.923V15.0915H170.139V6.88445Z" fill="white"/>
<path d="M177.445 16.875V6.88445H175.43V16.875H177.445Z" fill="white"/>
<path d="M185.314 13.076L181.747 6.88445H179.876V16.875H181.892V10.611L185.517 16.875H187.329V6.88445H185.314V13.076Z" fill="white"/>
<path d="M194.356 17.049C197.068 17.049 199.112 15.3525 199.112 11.655H194.081V13.2935H196.908C196.908 14.4535 195.618 15.2365 194.313 15.2365C192.486 15.2365 191.166 13.6705 191.166 11.887C191.166 10.1035 192.515 8.58095 194.255 8.58095C195.125 8.58095 195.922 8.95795 196.488 9.56695L197.952 8.30545C197.082 7.33395 195.763 6.71045 194.255 6.71045C191.384 6.71045 189.151 9.04495 189.151 11.887C189.151 14.7145 191.34 17.049 194.356 17.049Z" fill="white"/>
</g>
<defs>
<clipPath id="clip0_1843_7133">
<rect width="203.625" height="23" fill="white" transform="translate(0 0.5)"/>
</clipPath>
</defs>
</svg>
