<svg width="37" height="36" viewBox="0 0 37 36" fill="none" xmlns="http://www.w3.org/2000/svg">
<path fill-rule="evenodd" clip-rule="evenodd" d="M15.5 12H21.5C22.0523 12 22.5 12.4477 22.5 13V23C22.5 23.5523 22.0523 24 21.5 24H15.5C14.9477 24 14.5 23.5523 14.5 23V13C14.5 12.4477 14.9477 12 15.5 12ZM13.5 13C13.5 11.8954 14.3954 11 15.5 11H21.5C22.6046 11 23.5 11.8954 23.5 13V23C23.5 24.1046 22.6046 25 21.5 25H15.5C14.3954 25 13.5 24.1046 13.5 23V13ZM18.5 23C19.0523 23 19.5 22.5523 19.5 22C19.5 21.4477 19.0523 21 18.5 21C17.9477 21 17.5 21.4477 17.5 22C17.5 22.5523 17.9477 23 18.5 23Z" fill="white"/>
</svg>
