<svg width="37" height="36" viewBox="0 0 37 36" fill="none" xmlns="http://www.w3.org/2000/svg">
<path d="M18.5 16C18.1044 16 17.7178 16.1173 17.3889 16.3371C17.06 16.5568 16.8036 16.8692 16.6522 17.2346C16.5009 17.6001 16.4613 18.0022 16.5384 18.3902C16.6156 18.7781 16.8061 19.1345 17.0858 19.4142C17.3655 19.6939 17.7219 19.8844 18.1098 19.9616C18.4978 20.0387 18.8999 19.9991 19.2654 19.8478C19.6308 19.6964 19.9432 19.44 20.1629 19.1111C20.3827 18.7822 20.5 18.3956 20.5 18C20.5 17.4696 20.2893 16.9609 19.9142 16.5858C19.5391 16.2107 19.0304 16 18.5 16ZM18.5 15C19.0933 15 19.6734 15.1759 20.1667 15.5056C20.6601 15.8352 21.0446 16.3038 21.2716 16.8519C21.4987 17.4001 21.5581 18.0033 21.4424 18.5853C21.3266 19.1672 21.0409 19.7018 20.6213 20.1213C20.2018 20.5409 19.6672 20.8266 19.0853 20.9424C18.5033 21.0581 17.9001 20.9987 17.3519 20.7716C16.8038 20.5446 16.3352 20.1601 16.0056 19.6667C15.6759 19.1734 15.5 18.5933 15.5 18C15.5 17.2044 15.8161 16.4413 16.3787 15.8787C16.9413 15.3161 17.7044 15 18.5 15ZM18.5 13.5C17.0351 13.5186 15.6054 13.951 14.3757 14.7472C13.146 15.5434 12.1664 16.671 11.55 18C12.1701 19.3366 13.1574 20.4693 14.3968 21.2661C15.6362 22.0629 17.0766 22.4908 18.55 22.5C20.0149 22.4814 21.4446 22.049 22.6743 21.2528C23.904 20.4566 24.8836 19.329 25.5 18C24.8799 16.6634 23.8926 15.5307 22.6532 14.7339C21.4138 13.9371 19.9734 13.5092 18.5 13.5ZM18.5 12.5C20.2037 12.5131 21.8668 13.021 23.2871 13.962C24.7074 14.9029 25.8236 16.2363 26.5 17.8L26.59 18L26.5 18.2C25.8236 19.7637 24.7074 21.0971 23.2871 22.038C21.8668 22.979 20.2037 23.4869 18.5 23.5C16.7963 23.4869 15.1332 22.979 13.7129 22.038C12.2926 21.0971 11.1764 19.7637 10.5 18.2V18V17.8C11.1764 16.2363 12.2926 14.9029 13.7129 13.962C15.1332 13.021 16.7963 12.5131 18.5 12.5Z" fill="white"/>
</svg>
